<svg width="508" height="429" viewBox="0 0 508 429" fill="none" xmlns="http://www.w3.org/2000/svg">
<path d="M78.5589 95.6202C97.4628 91.881 112.535 77.611 117.303 58.9397L122.481 38.6585C125.699 26.052 133.705 15.1967 144.799 8.39764L146.475 7.36993C154.338 2.55067 163.381 0 172.603 0H458C485.614 0 508 22.3858 508 50V289.5C508 307.658 496.232 323.721 478.919 329.196L475.49 330.281C459.439 335.357 447.379 348.706 443.954 365.189L439.58 386.239C435.836 404.259 422.494 418.766 404.848 424.001L394.961 426.935C390.345 428.304 385.554 429 380.739 429H50C22.3858 429 0 406.614 0 379V149.081C0 139.902 2.73638 130.932 7.85952 123.317C14.674 113.187 25.2241 106.17 37.2006 103.801L78.5589 95.6202Z" fill="#D9D9D9"/>
</svg>
