<svg width="80" height="80" viewBox="0 0 80 80" fill="none" xmlns="http://www.w3.org/2000/svg">
<path d="M60 21.4687C59.4656 20.5451 58.7546 19.7358 57.9074 19.087C57.0602 18.4382 56.0935 17.9627 55.0625 17.6875C54.034 17.4058 52.9596 17.3325 51.9024 17.4721C50.8451 17.6116 49.8265 17.9611 48.9063 18.5C47.9682 19.0243 47.1489 19.7371 46.5 20.5937L42.125 13.0312C41.5937 12.1057 40.8853 11.2939 40.0401 10.6422C39.195 9.99055 38.2298 9.51174 37.1996 9.23315C36.1694 8.95456 35.0944 8.88165 34.0361 9.01859C32.9777 9.15553 31.9566 9.49963 31.0313 10.0312C29.9956 10.6382 29.1009 11.4584 28.4063 12.4375C27.4312 11.5171 26.2372 10.861 24.9375 10.5312C23.909 10.2495 22.8346 10.1763 21.7774 10.3158C20.7201 10.4553 19.7015 10.8048 18.7813 11.3437C17.8577 11.8781 17.0483 12.5892 16.3995 13.4364C15.7508 14.2836 15.2752 15.2502 15 16.2812C14.6836 17.421 14.6302 18.6178 14.8438 19.7812C14.0681 19.9714 13.3217 20.2657 12.625 20.6562C10.759 21.7405 9.39879 23.5202 8.84234 25.6054C8.28589 27.6906 8.57857 29.9114 9.65628 31.7812L10.2813 32.8437C9.20905 32.9681 8.17567 33.3197 7.25003 33.875C5.38614 34.9533 4.02652 36.7274 3.46986 38.8075C2.91321 40.8876 3.20505 43.1036 4.28128 44.9687L15.8438 65C19.164 70.7382 24.6249 74.925 31.0284 76.6416C37.4319 78.3581 44.2548 77.4643 50 74.1562C55.0404 71.2709 58.9021 66.701 60.9063 61.25C64.9692 57.3858 67.6132 52.2666 68.4125 46.7169C69.2118 41.1671 68.1198 35.5099 65.3125 30.6562L60 21.4687ZM33.5313 14.375C33.8879 14.1684 34.282 14.0343 34.6907 13.9806C35.0993 13.9269 35.5146 13.9546 35.9125 14.0621C36.3105 14.1696 36.6832 14.3547 37.0093 14.6068C37.3354 14.859 37.6084 15.1731 37.8125 15.5312L44.4688 27.0625C43.8698 27.2478 43.2933 27.4994 42.75 27.8125C41.8194 28.3472 41.002 29.0584 40.3438 29.9062L35.9688 22.3437C35.2075 21.012 34.0793 19.9273 32.7188 19.2187L32.375 18.6562C31.9661 17.9339 31.8582 17.0796 32.0746 16.2783C32.291 15.477 32.8143 14.7932 33.5313 14.375ZM21.2813 15.6562C22.0036 15.2473 22.8579 15.1394 23.6592 15.3558C24.4605 15.5722 25.1443 16.0955 25.5625 16.8125L26.5938 18.625C25.9969 18.8161 25.4211 19.0674 24.875 19.375C23.8265 19.9643 22.9281 20.7878 22.25 21.7812C21.7165 21.2848 21.1171 20.8641 20.4688 20.5312L20.1563 19.9375C19.9484 19.5827 19.8125 19.1903 19.7565 18.7829C19.7006 18.3755 19.7255 17.9611 19.8301 17.5633C19.9346 17.1656 20.1166 16.7924 20.3656 16.4651C20.6146 16.1379 20.9258 15.863 21.2813 15.6562ZM47.5 69.8125C42.908 72.4628 37.4516 73.1813 32.3301 71.8101C27.2085 70.4388 22.841 67.0901 20.1875 62.5L8.62503 42.4687C8.31386 41.9345 8.16816 41.3199 8.20636 40.7028C8.24457 40.0857 8.46497 39.4939 8.83967 39.0021C9.21437 38.5103 9.72653 38.1407 10.3113 37.94C10.8962 37.7394 11.5273 37.7168 12.125 37.875C12.9264 38.0997 13.6097 38.6261 14.0313 39.3437L21.5313 52.3437C21.7546 52.7184 22.0699 53.0298 22.4472 53.2485C22.8245 53.4673 23.2514 53.5861 23.6875 53.5937C24.1256 53.5922 24.5556 53.4756 24.9344 53.2555C25.3133 53.0354 25.6276 52.7197 25.846 52.3399C26.0644 51.9601 26.1791 51.5296 26.1787 51.0915C26.1783 50.6534 26.0628 50.2231 25.8438 49.8437L13.9688 29.2812C13.5544 28.5602 13.4434 27.704 13.6602 26.9011C13.8771 26.0982 14.404 25.4144 15.125 25C15.8461 24.5856 16.7022 24.4746 17.5051 24.6914C18.308 24.9083 18.9919 25.4352 19.4063 26.1562L31.2813 46.7187C31.4304 47.0296 31.6421 47.3062 31.9033 47.5313C32.1644 47.7564 32.4693 47.925 32.7987 48.0266C33.1282 48.1282 33.4751 48.1605 33.8176 48.1216C34.1602 48.0827 34.491 47.9733 34.7892 47.8004C35.0875 47.6275 35.3468 47.3948 35.5508 47.1169C35.7548 46.839 35.8991 46.5219 35.9746 46.1855C36.0502 45.8491 36.0554 45.5008 35.9898 45.1623C35.9243 44.8238 35.7894 44.5026 35.5938 44.2187L26.2188 27.9687C25.8099 27.2464 25.7019 26.3921 25.9183 25.5908C26.1347 24.7895 26.6581 24.1057 27.375 23.6875C28.0926 23.2801 28.9421 23.173 29.7384 23.3896C30.5346 23.6062 31.2128 24.1289 31.625 24.8437L44.75 47.5937C44.9761 47.9729 45.2963 48.2871 45.6795 48.5061C46.0628 48.7251 46.4961 48.8414 46.9375 48.8437C47.376 48.8329 47.8052 48.7148 48.1875 48.5C48.7579 48.167 49.1733 47.6219 49.3431 46.9837C49.5129 46.3455 49.4232 45.6661 49.0938 45.0937L44.0938 36.4062C43.6834 35.6972 43.571 34.8543 43.7813 34.0625C43.8813 33.6606 44.0634 33.2837 44.3161 32.9556C44.5689 32.6276 44.8869 32.3554 45.25 32.1562C45.5977 31.9446 45.9856 31.8075 46.3891 31.7538C46.7925 31.7 47.2028 31.7306 47.5938 31.8437C47.9916 31.9435 48.3653 32.1221 48.6928 32.3691C49.0202 32.616 49.2947 32.9262 49.5 33.2812L54.8125 42.5C56.129 44.7727 56.9841 47.2827 57.3291 49.8864C57.674 52.4901 57.5019 55.1362 56.8226 57.6733C56.1434 60.2104 54.9703 62.5885 53.3706 64.6716C51.7708 66.7546 49.7759 68.5016 47.5 69.8125ZM62.375 50.125C62.0506 46.5562 60.9522 43.101 59.1563 40L53.8438 30.7812C53.0729 29.457 51.9472 28.3746 50.5938 27.6562L50.25 27.0937C49.8378 26.3739 49.7256 25.5207 49.9375 24.7187C50.1622 23.9173 50.6886 23.2341 51.4063 22.8125C51.7606 22.6066 52.1522 22.4731 52.5585 22.4198C52.9648 22.3665 53.3776 22.3945 53.773 22.502C54.1684 22.6096 54.5385 22.7947 54.8618 23.0464C55.1851 23.2982 55.4551 23.6117 55.6563 23.9687L60.9688 33.1562C62.4353 35.7077 63.3215 38.5509 63.5646 41.4838C63.8076 44.4166 63.4015 47.3669 62.375 50.125ZM51.5625 7.71873L52.8438 2.87498C52.9279 2.55694 53.0739 2.25858 53.2733 1.99694C53.4727 1.73529 53.7217 1.5155 54.0061 1.35009C54.2905 1.18469 54.6047 1.07692 54.9307 1.03293C55.2567 0.988944 55.5882 1.0096 55.9063 1.09373C56.2243 1.17786 56.5227 1.32381 56.7843 1.52324C57.046 1.72268 57.2658 1.97169 57.4312 2.25607C57.5966 2.54045 57.7043 2.85463 57.7483 3.18066C57.7923 3.50669 57.7717 3.83819 57.6875 4.15623L56.375 8.99998C56.2361 9.53111 55.924 10.0008 55.4882 10.3347C55.0524 10.6686 54.5178 10.8477 53.9688 10.8437L53.3125 10.7812C52.6752 10.6058 52.1333 10.1851 51.8054 9.61122C51.4774 9.0373 51.3901 8.35686 51.5625 7.71873ZM59.7813 10.5937L62.6563 6.49998C63.0404 5.9567 63.6231 5.58652 64.2781 5.46955C64.9331 5.35258 65.6078 5.49823 66.1563 5.87498C66.4262 6.06493 66.6558 6.30643 66.8319 6.58556C67.008 6.86469 67.127 7.17592 67.1822 7.5013C67.2374 7.82668 67.2277 8.15977 67.1535 8.48136C67.0793 8.80294 66.9422 9.10666 66.75 9.37498L63.875 13.4687C63.688 13.7376 63.4493 13.9665 63.1729 14.1423C62.8965 14.318 62.5879 14.4369 62.265 14.4922C61.9422 14.5474 61.6116 14.5379 61.2925 14.4641C60.9734 14.3904 60.6721 14.2538 60.4063 14.0625C59.8651 13.6841 59.4956 13.1069 59.3785 12.457C59.2614 11.8071 59.4062 11.1372 59.7813 10.5937ZM73.5 17.3437L69.4063 20.2187C68.9785 20.4983 68.4798 20.65 67.9688 20.6562C67.4413 20.6521 66.9286 20.4811 66.5041 20.1679C66.0796 19.8546 65.7651 19.4151 65.6056 18.9123C65.4461 18.4094 65.4497 17.869 65.616 17.3684C65.7823 16.8677 66.1026 16.4325 66.5313 16.125L70.625 13.25C70.8934 13.0578 71.1971 12.9207 71.5187 12.8465C71.8402 12.7723 72.1733 12.7626 72.4987 12.8178C72.8241 12.873 73.1353 12.9921 73.4145 13.1681C73.6936 13.3442 73.9351 13.5738 74.125 13.8437C74.5018 14.3922 74.6474 15.0669 74.5305 15.7219C74.4135 16.377 74.0433 16.9596 73.5 17.3437Z" fill="#FEFFFF"/>
</svg>
