<svg width="41" height="39" viewBox="0 0 41 39" fill="none" xmlns="http://www.w3.org/2000/svg">
<path d="M28.9935 16.9856C31.0944 16.9856 32.8 15.1496 32.8 12.8864C32.8 10.6217 31.0944 8.78564 28.9935 8.78564C26.8884 8.78564 25.1857 10.6217 25.1857 12.8864C25.1857 15.1496 26.8884 16.9856 28.9935 16.9856Z" fill="#E17153"/>
<path d="M29.1722 0.00876775C28.5353 -0.0141007 27.893 0.00742255 27.2548 0.0773734C36.0777 2.07635 35.9305 11.1175 34.7035 14.5303C34.6969 14.5505 34.6888 14.572 34.6821 14.5908C34.1469 16.0584 33.2678 17.6444 31.895 18.4758C30.0459 19.5923 27.6241 18.9627 25.977 17.7722C21.706 14.6863 20.3292 8.10288 14.2907 7.44373C12.1378 7.20967 10.5428 8.17687 10.5428 8.17687C10.5428 8.17687 16.3164 10.3252 20.5111 19.3946C23.6207 26.1206 22.9691 33.7264 22.1823 38.0714C26.3703 35.8276 30.5998 33.3861 33.9141 29.9585C37.3408 26.4152 39.9406 21.8738 40.7675 16.9678C42.0814 9.18309 37.7743 0.326237 29.1722 0.00876775Z" fill="#E17153"/>
<path d="M14.0048 29.2525C12.6392 28.5886 11.5312 27.8218 9.95715 26.3572C11.906 29.9083 15.9454 32.5705 20.5 33.9715C20.5 32.6112 20.1879 31.9473 18.9232 31.2292C17.3873 30.3554 15.5897 30.0261 14.0048 29.2525Z" fill="#058789"/>
<path d="M11.1285 25.1858C13.0489 27.4045 16.0307 28.495 19.3285 29.2858C19.3285 27.5796 17.423 26.9965 16.2481 26.8656C13.6553 26.5747 11.1285 25.1858 11.1285 25.1858Z" fill="#058789"/>
<path d="M13.8657 31.8706C11.4165 30.1261 9.82553 28.5348 9.05269 25.5807C8.80218 24.6243 8.72223 23.4654 9.42179 22.7812C10.0134 22.2011 10.9502 22.2066 11.747 22.4022C12.5438 22.5992 13.3167 22.955 14.1362 22.9605C14.9543 22.9659 16.1709 22.5938 16.2668 21.7564C14.3867 19.6411 11.8229 18.177 9.08067 17.6516C8.40643 17.5216 7.75084 17.3985 7.12323 17.2179C6.14252 16.9415 5.23242 16.5283 4.42893 15.7456C3.32562 14.6702 2.63006 13.2362 2.19833 11.7571C1.64668 9.86892 1.49477 7.83158 1.72929 5.85718C0.182264 8.9645 -0.354732 12.7341 0.231566 16.2861C1.05505 21.2761 3.64409 25.8954 7.05661 29.4994C10.7969 33.4509 15.7112 36.1136 20.4042 38.6572C21.1051 34.7097 17.8618 34.7097 13.8657 31.8706Z" fill="#00715D"/>
<path d="M33.2769 4.95693C32.009 2.64315 29.8885 1.13742 26.9757 0.480467L25.9535 0.250534C23.8355 0.680181 21.8516 1.67875 20.4458 3.37237C18.3857 0.890405 15.0813 -0.105533 11.9412 0.00877622C7.69485 0.163817 4.51664 2.42636 2.56688 5.60469L2.44469 6.60851C2.2174 8.47162 2.37243 10.3715 2.89272 12.1046C3.35651 13.651 4.05811 14.8782 4.98043 15.7533C5.57167 16.3143 6.26144 16.6993 7.18508 16.9857C6.93545 16.2381 6.72786 15.4787 6.59122 14.7022C6.19181 12.4685 6.39283 10.0536 7.58712 8.12344C8.90623 5.99098 11.4262 4.65999 13.933 4.77167C16.4372 4.88336 19.3225 6.39566 20.4458 8.63718C21.5691 6.39566 24.4544 4.88336 26.9586 4.77167C29.4654 4.65999 31.9854 5.99098 33.3045 8.12344C34.014 9.27048 34.3713 10.5883 34.4633 11.9364C34.7077 9.90772 34.529 7.24444 33.2769 4.95693Z" fill="#00715D"/>
</svg>
