<svg width="444" height="455" viewBox="0 0 444 455" fill="none" xmlns="http://www.w3.org/2000/svg">
<path d="M244.967 113.452C261.341 106.159 281.08 114.556 288.993 132.322C296.901 150.076 289.939 170.366 273.566 177.659C257.159 184.966 237.443 176.559 229.535 158.805C221.621 141.039 228.561 120.759 244.967 113.452Z" stroke="#00715D" stroke-opacity="0.15"/>
<path d="M202.163 48.4001C205.877 46.3634 209.699 44.5406 213.592 42.9321L214.553 42.5391C249.235 28.6024 282.946 35.4076 310.151 54.026C336.942 72.3609 357.41 102.149 366.22 134.832L366.631 136.39C377.451 178.372 372.884 223.752 358.187 264.128C344.095 302.854 319.393 337.06 294.198 369.599C284.872 331.976 262.953 269.567 214.563 227.199C181.661 198.401 151.755 184.832 130.058 178.464C119.211 175.281 110.418 173.898 104.331 173.312C101.287 173.018 98.9202 172.924 97.3111 172.903C96.7438 172.896 96.2707 172.899 95.8954 172.905C96.1676 172.557 96.5288 172.107 96.9811 171.579C98.1196 170.248 99.8257 168.411 102.091 166.394C106.481 162.485 112.962 157.907 121.469 155.023L122.299 154.749C147.345 146.721 168.407 154.51 188.908 165.566C194.033 168.33 199.117 171.295 204.22 174.266C209.319 177.236 214.437 180.211 219.618 182.989C229.979 188.545 240.619 193.323 251.943 195.703C269.405 199.377 291.206 195.813 302.144 180.099L302.145 180.098C310.234 168.445 311.595 152.52 310.642 138.87L310.642 138.865C310.63 138.703 310.615 138.486 310.596 138.295C309.409 122.396 301.042 96.2261 283.251 75.9424C265.881 56.1399 239.526 41.9518 202.163 48.4001Z" stroke="#00715D" stroke-opacity="0.15"/>
<path d="M157.605 322.055C173.68 327.314 184.693 329.248 197.216 329.637L197.215 329.636C204.942 329.888 212.699 329.066 220.401 328.369C227.635 327.715 234.827 327.171 241.976 327.707L243.405 327.83C249.675 328.425 253.935 329.748 257.218 332.206C260.375 334.571 262.682 338.027 264.978 343.054C225.245 347.815 185.332 341.578 157.605 322.055Z" stroke="#00715D" stroke-opacity="0.15"/>
<path d="M164.507 308.235C167.196 308.325 171.005 308.372 175.492 308.204C184.181 307.879 195.433 306.748 206.011 303.541L207.032 303.224C211.892 301.678 218.562 300.391 224.74 301.155C230.717 301.895 236.185 304.541 239.177 310.694C211.48 315.794 185.246 317.606 162.991 308.174C163.446 308.194 163.953 308.217 164.507 308.235Z" stroke="#00715D" stroke-opacity="0.15"/>
<path d="M16.7316 189.188C21.9595 204.83 30.1166 219.608 40.66 232.049C49.3951 242.362 60.1074 251.405 72.8375 256.111L72.8379 256.112C82.1299 259.543 90.946 259.604 99.8004 258.32L99.8008 258.321C105.475 257.53 111.165 256.178 116.997 254.822L116.998 254.822C140.552 249.318 166.004 251.855 188.369 261.939C189.275 265.143 187.869 268.462 185.335 271.403C182.755 274.397 179.088 276.894 175.876 278.299C172.662 279.705 169.219 280.391 165.676 280.88C162.163 281.366 158.485 281.665 154.951 282.295L154.95 282.295C147.86 283.57 140.135 286.901 137.379 293.888C135.747 298.009 136.176 302.371 137.674 306.522C139.17 310.67 141.745 314.647 144.464 318.043C161.234 339.01 179.712 346.098 205.5 351.336L205.501 351.337C216.022 353.461 225.532 354.33 233.995 354.973C242.472 355.617 249.864 356.031 256.211 357.239C262.549 358.445 267.785 360.431 271.959 364.18C276.018 367.827 279.12 373.185 281.215 381.244C234.943 377.623 186.635 373.773 143.062 355.642L143.061 355.642C103.109 339.024 66.124 311.403 41.8782 274.591C25.1744 249.231 16.1228 218.52 16.7316 189.188Z" stroke="#00715D" stroke-opacity="0.15"/>
<path d="M77.0535 103.783C101.682 91.7237 131.496 87.9461 156.629 100.338L157.169 100.604L157.331 100.026C162.508 81.6555 174.712 66.7186 190.019 55.7944L198.909 54.009C224.434 48.8987 246.608 53.3505 264.855 67.2133C281.22 79.6594 291.673 97.7017 297.388 113.64C292.122 104.972 285.344 97.3187 276.924 91.5948C258.632 79.1621 233.541 77.4995 213.718 87.4065C203.821 92.3535 194.424 100.453 187.373 110.068C180.528 119.4 175.872 130.19 175.136 140.945C166.649 134.298 155.515 130.541 144 129.386C132.137 128.197 119.83 129.764 109.533 133.812C88.9085 141.92 73.3599 161.685 70.3667 183.598C67.6976 203.12 74.479 222.928 85.3625 239.265L85.8835 240.041C89.5728 245.509 93.7218 250.618 98.1429 255.494C90.4915 256.304 84.1237 255.718 77.9377 253.639L77.3143 253.425C66.9228 249.759 57.012 242.518 47.8411 231.868C37.5594 219.935 29.5924 205.374 24.8026 189.747L22.241 181.399C26.5403 149.249 43.8343 120.055 77.0535 103.783Z" stroke="#00715D" stroke-opacity="0.15"/>
<path d="M161.61 210C161.331 210 161.103 209.911 160.926 209.734C160.749 209.557 160.66 209.329 160.66 209.05V184.35C160.66 184.071 160.749 183.843 160.926 183.666C161.103 183.489 161.331 183.4 161.61 183.4H172.25C174.353 183.4 176.177 183.729 177.722 184.388C179.293 185.021 180.509 185.984 181.37 187.276C182.257 188.568 182.7 190.202 182.7 192.178C182.7 194.129 182.257 195.737 181.37 197.004C180.509 198.271 179.293 199.208 177.722 199.816C176.177 200.424 174.353 200.728 172.25 200.728H167.728V209.05C167.728 209.329 167.627 209.557 167.424 209.734C167.247 209.911 167.019 210 166.74 210H161.61ZM167.614 195.484H172.06C173.149 195.484 174.011 195.205 174.644 194.648C175.303 194.091 175.632 193.242 175.632 192.102C175.632 191.139 175.353 190.329 174.796 189.67C174.239 189.011 173.327 188.682 172.06 188.682H167.614V195.484ZM191.85 210.38C190.482 210.38 189.253 210.127 188.164 209.62C187.1 209.088 186.251 208.379 185.618 207.492C184.984 206.605 184.668 205.605 184.668 204.49C184.668 202.691 185.402 201.273 186.872 200.234C188.341 199.17 190.292 198.448 192.724 198.068L197.474 197.346V196.814C197.474 195.902 197.284 195.205 196.904 194.724C196.524 194.243 195.827 194.002 194.814 194.002C194.104 194.002 193.522 194.141 193.066 194.42C192.635 194.699 192.293 195.079 192.04 195.56C191.812 195.889 191.495 196.054 191.09 196.054H186.834C186.555 196.054 186.34 195.978 186.188 195.826C186.036 195.649 185.972 195.446 185.998 195.218C185.998 194.762 186.162 194.243 186.492 193.66C186.846 193.052 187.378 192.457 188.088 191.874C188.797 191.291 189.709 190.81 190.824 190.43C191.938 190.05 193.281 189.86 194.852 189.86C196.498 189.86 197.904 190.05 199.07 190.43C200.235 190.81 201.172 191.342 201.882 192.026C202.616 192.71 203.161 193.521 203.516 194.458C203.87 195.37 204.048 196.383 204.048 197.498V209.05C204.048 209.329 203.946 209.557 203.744 209.734C203.566 209.911 203.351 210 203.098 210H198.69C198.411 210 198.183 209.911 198.006 209.734C197.828 209.557 197.74 209.329 197.74 209.05V207.72C197.41 208.201 196.967 208.645 196.41 209.05C195.852 209.455 195.194 209.772 194.434 210C193.699 210.253 192.838 210.38 191.85 210.38ZM193.636 206.048C194.37 206.048 195.029 205.896 195.612 205.592C196.22 205.263 196.688 204.769 197.018 204.11C197.372 203.426 197.55 202.577 197.55 201.564V201.032L194.32 201.602C193.129 201.805 192.255 202.121 191.698 202.552C191.166 202.957 190.9 203.439 190.9 203.996C190.9 204.427 191.026 204.794 191.28 205.098C191.533 205.402 191.862 205.643 192.268 205.82C192.673 205.972 193.129 206.048 193.636 206.048ZM216.62 210.38C214.846 210.38 213.377 210.19 212.212 209.81C211.072 209.43 210.16 208.936 209.476 208.328C208.792 207.72 208.298 207.087 207.994 206.428C207.715 205.744 207.538 205.136 207.462 204.604C207.436 204.401 207.5 204.237 207.652 204.11C207.804 203.983 207.968 203.92 208.146 203.92H212.554C212.832 203.92 213.035 203.971 213.162 204.072C213.314 204.173 213.44 204.313 213.542 204.49C213.77 204.997 214.137 205.364 214.644 205.592C215.176 205.82 215.86 205.934 216.696 205.934C217.278 205.934 217.785 205.858 218.216 205.706C218.672 205.554 219.014 205.326 219.242 205.022C219.47 204.718 219.584 204.338 219.584 203.882C219.584 203.249 219.394 202.767 219.014 202.438C218.634 202.083 217.975 201.906 217.038 201.906H214.91C214.682 201.906 214.492 201.83 214.34 201.678C214.188 201.501 214.112 201.298 214.112 201.07V198.904C214.112 198.676 214.188 198.486 214.34 198.334C214.492 198.157 214.682 198.068 214.91 198.068H216.962C217.747 198.068 218.317 197.929 218.672 197.65C219.026 197.371 219.204 196.941 219.204 196.358C219.204 196.003 219.115 195.674 218.938 195.37C218.76 195.066 218.482 194.825 218.102 194.648C217.722 194.445 217.202 194.344 216.544 194.344C215.606 194.344 214.935 194.483 214.53 194.762C214.15 195.015 213.833 195.421 213.58 195.978C213.478 196.155 213.352 196.295 213.2 196.396C213.073 196.497 212.87 196.548 212.592 196.548H208.336C208.133 196.548 207.968 196.485 207.842 196.358C207.715 196.231 207.652 196.067 207.652 195.864C207.728 195.205 207.918 194.534 208.222 193.85C208.551 193.141 209.058 192.482 209.742 191.874C210.426 191.266 211.325 190.785 212.44 190.43C213.554 190.05 214.948 189.86 216.62 189.86C218.773 189.86 220.483 190.126 221.75 190.658C223.042 191.165 223.966 191.849 224.524 192.71C225.081 193.546 225.36 194.471 225.36 195.484C225.36 196.345 225.182 197.131 224.828 197.84C224.473 198.549 223.84 199.132 222.928 199.588C224.068 200.019 224.853 200.677 225.284 201.564C225.714 202.451 225.93 203.401 225.93 204.414C225.93 205.63 225.55 206.681 224.79 207.568C224.055 208.455 222.991 209.151 221.598 209.658C220.204 210.139 218.545 210.38 216.62 210.38ZM238.873 210.38C236.745 210.38 234.947 210.038 233.477 209.354C232.033 208.67 230.919 207.695 230.133 206.428C229.373 205.136 228.943 203.603 228.841 201.83C228.816 201.323 228.803 200.753 228.803 200.12C228.803 199.461 228.816 198.891 228.841 198.41C228.943 196.611 229.399 195.079 230.209 193.812C231.02 192.545 232.147 191.57 233.591 190.886C235.061 190.202 236.821 189.86 238.873 189.86C240.951 189.86 242.711 190.202 244.155 190.886C245.625 191.57 246.765 192.545 247.575 193.812C248.386 195.079 248.842 196.611 248.943 198.41C248.969 198.891 248.981 199.461 248.981 200.12C248.981 200.753 248.969 201.323 248.943 201.83C248.842 203.603 248.399 205.136 247.613 206.428C246.853 207.695 245.739 208.67 244.269 209.354C242.825 210.038 241.027 210.38 238.873 210.38ZM238.873 205.744C240.013 205.744 240.837 205.402 241.343 204.718C241.875 204.034 242.179 203.008 242.255 201.64C242.281 201.26 242.293 200.753 242.293 200.12C242.293 199.487 242.281 198.98 242.255 198.6C242.179 197.257 241.875 196.244 241.343 195.56C240.837 194.851 240.013 194.496 238.873 194.496C237.759 194.496 236.935 194.851 236.403 195.56C235.871 196.244 235.58 197.257 235.529 198.6C235.504 198.98 235.491 199.487 235.491 200.12C235.491 200.753 235.504 201.26 235.529 201.64C235.58 203.008 235.871 204.034 236.403 204.718C236.935 205.402 237.759 205.744 238.873 205.744ZM253.479 210C253.276 210 253.099 209.924 252.947 209.772C252.795 209.62 252.719 209.43 252.719 209.202V191C252.719 190.797 252.795 190.62 252.947 190.468C253.099 190.316 253.276 190.24 253.479 190.24H257.849C258.305 190.24 258.672 190.468 258.951 190.924L264.119 200.158L269.325 190.924C269.603 190.468 269.971 190.24 270.427 190.24H274.797C275.025 190.24 275.215 190.316 275.367 190.468C275.519 190.62 275.595 190.797 275.595 191V209.202C275.595 209.43 275.519 209.62 275.367 209.772C275.215 209.924 275.025 210 274.797 210H270.085C269.857 210 269.667 209.924 269.515 209.772C269.363 209.62 269.287 209.43 269.287 209.202V196.814L271.149 197.232L266.019 206.2C265.892 206.428 265.74 206.631 265.563 206.808C265.411 206.96 265.183 207.036 264.879 207.036H263.359C263.105 207.036 262.89 206.96 262.713 206.808C262.535 206.656 262.371 206.453 262.219 206.2L257.241 197.46L258.989 197.08V209.202C258.989 209.43 258.913 209.62 258.761 209.772C258.609 209.924 258.419 210 258.191 210H253.479Z" fill="#3A3A3A"/>
<path d="M127.501 197C131.088 197 134 193.865 134 190.001C134 186.135 131.088 183 127.501 183C123.907 183 121 186.135 121 190.001C121 193.865 123.907 197 127.501 197Z" fill="#E17153"/>
<path d="M127.806 168.015C126.719 167.976 125.622 168.013 124.533 168.132C139.596 171.545 139.345 186.981 137.25 192.808C137.239 192.842 137.225 192.879 137.213 192.911C136.3 195.417 134.799 198.125 132.455 199.544C129.298 201.45 125.163 200.375 122.351 198.343C115.059 193.074 112.708 181.834 102.399 180.709C98.723 180.309 96 181.961 96 181.961C96 181.961 105.857 185.628 113.019 201.113C118.328 212.596 117.216 225.582 115.872 233C123.023 229.169 130.244 225.001 135.902 219.149C141.753 213.099 146.191 205.345 147.603 196.969C149.846 183.678 142.493 168.557 127.806 168.015Z" fill="#E17153"/>
<path d="M101.911 217.943C99.5791 216.81 97.6874 215.501 95 213C98.3273 219.063 105.224 223.608 113 226C113 223.678 112.467 222.544 110.308 221.318C107.686 219.826 104.617 219.264 101.911 217.943Z" fill="#058789"/>
<path d="M97 211C100.279 214.788 105.37 216.65 111 218C111 215.087 107.747 214.092 105.741 213.868C101.314 213.371 97 211 97 211Z" fill="#058789"/>
<path d="M101.673 222.413C97.4916 219.435 94.7753 216.718 93.4558 211.674C93.0281 210.041 92.8916 208.063 94.086 206.895C95.0961 205.904 96.6954 205.914 98.0558 206.248C99.4163 206.584 100.736 207.191 102.135 207.201C103.532 207.21 105.609 206.575 105.773 205.145C102.563 201.533 98.1855 199.034 93.5036 198.137C92.3524 197.915 91.2331 197.705 90.1616 197.396C88.4872 196.924 86.9334 196.219 85.5616 194.883C83.6779 193.047 82.4903 190.598 81.7532 188.073C80.8114 184.849 80.552 181.371 80.9524 178C78.3112 183.305 77.3944 189.741 78.3954 195.805C79.8013 204.325 84.2216 212.212 90.0479 218.365C96.4338 225.111 104.824 229.657 112.836 234C114.033 227.26 108.496 227.26 101.673 222.413Z" fill="#00715D"/>
<path d="M134.814 176.463C132.649 172.513 129.029 169.942 124.056 168.82L122.311 168.428C118.695 169.161 115.308 170.866 112.907 173.758C109.39 169.52 103.749 167.82 98.3874 168.015C91.1375 168.28 85.7113 172.143 82.3824 177.569L82.1738 179.283C81.7857 182.464 82.0504 185.707 82.9387 188.666C83.7306 191.307 84.9284 193.402 86.5031 194.896C87.5125 195.854 88.6902 196.511 90.2671 197C89.8409 195.724 89.4865 194.427 89.2532 193.101C88.5713 189.288 88.9145 185.165 90.9536 181.869C93.2057 178.228 97.5081 175.956 101.788 176.147C106.064 176.337 110.989 178.919 112.907 182.746C114.825 178.919 119.751 176.337 124.027 176.147C128.307 175.956 132.609 178.228 134.861 181.869C136.073 183.828 136.683 186.078 136.84 188.379C137.257 184.916 136.952 180.369 134.814 176.463Z" fill="#00715D"/>
</svg>
