<svg width="309" height="39" viewBox="0 0 309 39" fill="none" xmlns="http://www.w3.org/2000/svg">
<path d="M51.36 10.5486C53.2 10.5486 54.54 10.9486 55.38 11.7486C56.2333 12.5353 56.66 13.6219 56.66 15.0086C56.66 15.6353 56.5667 16.2353 56.38 16.8086C56.1933 17.3686 55.88 17.8753 55.44 18.3286C55.0133 18.7686 54.4467 19.1153 53.74 19.3686C53.0333 19.6219 52.16 19.7486 51.12 19.7486H49.82V24.8286H46.8V10.5486H51.36ZM51.2 13.0286H49.82V17.2686H50.82C51.3933 17.2686 51.8867 17.1953 52.3 17.0486C52.7133 16.9019 53.0333 16.6686 53.26 16.3486C53.4867 16.0286 53.6 15.6153 53.6 15.1086C53.6 14.4019 53.4067 13.8819 53.02 13.5486C52.6333 13.2019 52.0267 13.0286 51.2 13.0286ZM63.5986 13.6886C65.0653 13.6886 66.1853 14.0086 66.9586 14.6486C67.7453 15.2753 68.1386 16.2419 68.1386 17.5486V24.8286H66.0586L65.4786 23.3486H65.3986C65.0919 23.7353 64.7719 24.0553 64.4386 24.3086C64.1186 24.5619 63.7453 24.7419 63.3186 24.8486C62.9053 24.9686 62.3919 25.0286 61.7786 25.0286C61.1386 25.0286 60.5586 24.9086 60.0386 24.6686C59.5319 24.4153 59.1319 24.0353 58.8386 23.5286C58.5453 23.0086 58.3986 22.3553 58.3986 21.5686C58.3986 20.4086 58.8053 19.5553 59.6186 19.0086C60.4319 18.4486 61.6519 18.1419 63.2786 18.0886L65.1786 18.0286V17.5486C65.1786 16.9753 65.0253 16.5553 64.7186 16.2886C64.4253 16.0219 64.0119 15.8886 63.4786 15.8886C62.9453 15.8886 62.4253 15.9686 61.9186 16.1286C61.4119 16.2753 60.9053 16.4619 60.3986 16.6886L59.4186 14.6686C60.0053 14.3619 60.6519 14.1219 61.3586 13.9486C62.0786 13.7753 62.8253 13.6886 63.5986 13.6886ZM64.0186 19.8086C63.0586 19.8353 62.3919 20.0086 62.0186 20.3286C61.6453 20.6486 61.4586 21.0686 61.4586 21.5886C61.4586 22.0419 61.5919 22.3686 61.8586 22.5686C62.1253 22.7553 62.4719 22.8486 62.8986 22.8486C63.5386 22.8486 64.0786 22.6619 64.5186 22.2886C64.9586 21.9019 65.1786 21.3619 65.1786 20.6686V19.7686L64.0186 19.8086ZM75.1689 13.7086C75.9556 13.7086 76.6889 13.8153 77.3689 14.0286C78.0622 14.2286 78.6156 14.5419 79.0289 14.9686C79.4556 15.3953 79.6689 15.9419 79.6689 16.6086C79.6689 17.2619 79.4689 17.7819 79.0689 18.1686C78.6822 18.5553 78.1556 18.8353 77.4889 19.0086V19.1086C77.9556 19.2153 78.3756 19.3686 78.7489 19.5686C79.1222 19.7553 79.4156 20.0153 79.6289 20.3486C79.8556 20.6686 79.9689 21.1019 79.9689 21.6486C79.9689 22.2486 79.7756 22.8086 79.3889 23.3286C79.0156 23.8353 78.4289 24.2486 77.6289 24.5686C76.8422 24.8753 75.8289 25.0286 74.5889 25.0286C74.0022 25.0286 73.4489 25.0019 72.9289 24.9486C72.4089 24.8953 71.9356 24.8219 71.5089 24.7286C71.0822 24.6219 70.7089 24.4953 70.3889 24.3486V21.8886C70.8422 22.1019 71.3956 22.2953 72.0489 22.4686C72.7156 22.6419 73.4222 22.7286 74.1689 22.7286C74.7156 22.7286 75.2022 22.6886 75.6289 22.6086C76.0689 22.5286 76.4156 22.3953 76.6689 22.2086C76.9356 22.0219 77.0689 21.7753 77.0689 21.4686C77.0689 21.1753 76.9556 20.9353 76.7289 20.7486C76.5022 20.5486 76.1622 20.4019 75.7089 20.3086C75.2556 20.2153 74.6756 20.1686 73.9689 20.1686H72.8089V18.1086H73.9089C74.8956 18.1086 75.6556 18.0286 76.1889 17.8686C76.7356 17.7086 77.0089 17.4086 77.0089 16.9686C77.0089 16.6219 76.8356 16.3619 76.4889 16.1886C76.1422 16.0019 75.5756 15.9086 74.7889 15.9086C74.2689 15.9086 73.7022 15.9686 73.0889 16.0886C72.4756 16.2086 71.8956 16.3819 71.3489 16.6086L70.4689 14.5286C71.0956 14.2886 71.7822 14.0953 72.5289 13.9486C73.2756 13.7886 74.1556 13.7086 75.1689 13.7086ZM92.2027 19.3486C92.2027 20.2553 92.076 21.0619 91.8227 21.7686C91.5827 22.4753 91.2293 23.0753 90.7627 23.5686C90.3093 24.0486 89.756 24.4153 89.1027 24.6686C88.4493 24.9086 87.7093 25.0286 86.8827 25.0286C86.1227 25.0286 85.416 24.9086 84.7627 24.6686C84.1227 24.4153 83.5693 24.0486 83.1027 23.5686C82.636 23.0753 82.2693 22.4753 82.0027 21.7686C81.7493 21.0619 81.6227 20.2553 81.6227 19.3486C81.6227 18.1353 81.836 17.1153 82.2627 16.2886C82.6893 15.4486 83.3027 14.8086 84.1027 14.3686C84.9027 13.9286 85.8493 13.7086 86.9427 13.7086C87.9693 13.7086 88.876 13.9286 89.6627 14.3686C90.4493 14.8086 91.0693 15.4486 91.5227 16.2886C91.976 17.1153 92.2027 18.1353 92.2027 19.3486ZM84.6627 19.3486C84.6627 20.0686 84.736 20.6753 84.8827 21.1686C85.0427 21.6486 85.2893 22.0153 85.6227 22.2686C85.956 22.5086 86.3893 22.6286 86.9227 22.6286C87.456 22.6286 87.8827 22.5086 88.2027 22.2686C88.536 22.0153 88.776 21.6486 88.9227 21.1686C89.0827 20.6753 89.1627 20.0686 89.1627 19.3486C89.1627 18.6286 89.0827 18.0286 88.9227 17.5486C88.776 17.0686 88.536 16.7086 88.2027 16.4686C87.8693 16.2286 87.436 16.1086 86.9027 16.1086C86.116 16.1086 85.5427 16.3819 85.1827 16.9286C84.836 17.4619 84.6627 18.2686 84.6627 19.3486ZM108.425 13.9086V24.8286H105.645V19.4686C105.645 18.9353 105.652 18.4153 105.665 17.9086C105.692 17.4019 105.725 16.9353 105.765 16.5086H105.705L102.685 24.8286H100.445L97.3855 16.4886H97.3055C97.3588 16.9286 97.3921 17.4019 97.4055 17.9086C97.4321 18.4019 97.4455 18.9486 97.4455 19.5486V24.8286H94.6655V13.9086H98.8855L101.605 21.3086L104.365 13.9086H108.425Z" fill="#3A3A3A"/>
<path d="M28.9936 16.9856C31.0945 16.9856 32.8 15.1496 32.8 12.8864C32.8 10.6217 31.0945 8.78564 28.9936 8.78564C26.8885 8.78564 25.1857 10.6217 25.1857 12.8864C25.1857 15.1496 26.8885 16.9856 28.9936 16.9856Z" fill="#E17153"/>
<path d="M29.1722 0.00876775C28.5353 -0.0141007 27.893 0.00742255 27.2548 0.0773734C36.0777 2.07635 35.9305 11.1175 34.7036 14.5303C34.6969 14.5505 34.6888 14.572 34.6822 14.5908C34.1469 16.0584 33.2679 17.6444 31.8951 18.4758C30.0459 19.5923 27.6241 18.9627 25.977 17.7722C21.706 14.6863 20.3292 8.10288 14.2907 7.44373C12.1378 7.20967 10.5429 8.17687 10.5429 8.17687C10.5429 8.17687 16.3164 10.3252 20.5111 19.3946C23.6207 26.1206 22.9691 33.7264 22.1823 38.0714C26.3703 35.8276 30.5998 33.3861 33.9141 29.9585C37.3408 26.4152 39.9406 21.8738 40.7675 16.9678C42.0814 9.18309 37.7743 0.326237 29.1722 0.00876775Z" fill="#E17153"/>
<path d="M14.0047 29.2525C12.6392 28.5886 11.5312 27.8218 9.95714 26.3572C11.906 29.9083 15.9454 32.5705 20.5 33.9715C20.5 32.6112 20.1879 31.9473 18.9232 31.2292C17.3873 30.3554 15.5897 30.0261 14.0047 29.2525Z" fill="#058789"/>
<path d="M11.1286 25.1858C13.0489 27.4045 16.0307 28.495 19.3286 29.2858C19.3286 27.5796 17.4231 26.9965 16.2482 26.8656C13.6553 26.5747 11.1286 25.1858 11.1286 25.1858Z" fill="#058789"/>
<path d="M13.8657 31.8706C11.4165 30.1261 9.82553 28.5348 9.05269 25.5807C8.80218 24.6243 8.72223 23.4654 9.42179 22.7812C10.0134 22.2011 10.9502 22.2066 11.747 22.4022C12.5438 22.5992 13.3167 22.955 14.1362 22.9605C14.9543 22.9659 16.1709 22.5938 16.2668 21.7564C14.3867 19.6411 11.8229 18.177 9.08067 17.6516C8.40643 17.5216 7.75084 17.3985 7.12323 17.2179C6.14252 16.9415 5.23242 16.5283 4.42893 15.7456C3.32562 14.6702 2.63006 13.2362 2.19833 11.7571C1.64668 9.86892 1.49477 7.83158 1.72929 5.85718C0.182264 8.9645 -0.354732 12.7341 0.231566 16.2861C1.05505 21.2761 3.64409 25.8954 7.05661 29.4994C10.7969 33.4509 15.7112 36.1136 20.4042 38.6572C21.1051 34.7097 17.8618 34.7097 13.8657 31.8706Z" fill="#00715D"/>
<path d="M33.2769 4.95693C32.009 2.64315 29.8884 1.13742 26.9756 0.480467L25.9534 0.250534C23.8355 0.680181 21.8516 1.67875 20.4458 3.37237C18.3856 0.890405 15.0813 -0.105533 11.9412 0.00877622C7.69481 0.163817 4.5166 2.42636 2.56684 5.60469L2.44465 6.60851C2.21735 8.47162 2.37239 10.3715 2.89267 12.1046C3.35646 13.651 4.05806 14.8782 4.98039 15.7533C5.57162 16.3143 6.26139 16.6993 7.18503 16.9857C6.9354 16.2381 6.72781 15.4787 6.59117 14.7022C6.19176 12.4685 6.39278 10.0536 7.58707 8.12344C8.90618 5.99098 11.4262 4.65999 13.933 4.77167C16.4372 4.88336 19.3224 6.39566 20.4458 8.63718C21.5691 6.39566 24.4543 4.88336 26.9585 4.77167C29.4654 4.65999 31.9853 5.99098 33.3044 8.12344C34.0139 9.27048 34.3713 10.5883 34.4633 11.9364C34.7076 9.90772 34.529 7.24444 33.2769 4.95693Z" fill="#00715D"/>
</svg>
