<svg width="782" height="1042" viewBox="0 0 782 1042" fill="none" xmlns="http://www.w3.org/2000/svg">
<path d="M0 45C0 20.1472 20.1472 0 45 0H781.5V1042H45C20.1472 1042 0 1021.85 0 997V45Z" fill="#00715D"/>
<path d="M488.909 320.505C517.788 307.902 552.753 322.378 566.803 353.285C580.844 384.171 568.439 419.32 539.559 431.923C510.62 444.553 475.696 430.06 461.656 399.173C447.605 368.265 459.971 333.134 488.909 320.505Z" stroke="#F7FFFD" stroke-opacity="0.2" stroke-width="5"/>
<path d="M419.902 200.199C424.395 198.051 428.961 196.064 433.578 194.241L433.578 194.24C496.063 169.638 556.779 181.634 605.837 214.53C654.57 247.208 691.752 300.501 707.456 358.894L707.823 360.274C727.39 434.663 719.145 515.142 692.524 586.803L692.523 586.804C667.377 654.51 623.554 714.484 578.468 771.66C561.042 704.251 520.976 595.008 434.019 520.411L431.212 518.019C372.331 468.211 318.845 444.513 279.813 433.289C259.993 427.589 243.911 425.109 232.755 424.056C227.7 423.579 223.656 423.396 220.735 423.338C222.762 421.038 225.73 417.931 229.627 414.532C237.746 407.449 249.846 399.125 265.791 394.109L265.792 394.11C310.689 380.01 348.475 393.63 385.617 413.257C394.905 418.165 404.122 423.431 413.4 428.725C422.666 434.012 431.992 439.326 441.438 444.288C460.327 454.211 479.821 462.8 500.621 467.084L500.621 467.085C532.671 473.691 573.089 467.374 593.483 438.665L593.486 438.663C608.505 417.462 610.956 388.649 609.215 364.22L609.214 364.209L609.213 364.199C609.193 363.947 609.165 363.513 609.128 363.15L609.126 363.149C606.934 334.511 591.6 287.589 559.019 251.194C528.647 217.267 483.286 192.511 419.902 200.199Z" stroke="#F7FFFD" stroke-opacity="0.2" stroke-width="5"/>
<path d="M339.996 695.429C362.713 702.051 380.102 704.814 399.153 705.555L401.429 705.634C415.592 706.086 429.805 704.607 443.761 703.37C457.787 702.127 471.595 701.123 485.279 702.409L485.281 702.409C496.543 703.457 503.947 705.768 509.571 709.895C514.572 713.564 518.409 718.848 522.216 726.604C455.458 734.075 388.806 724.688 339.996 695.429Z" stroke="#F7FFFD" stroke-opacity="0.2" stroke-width="5"/>
<path d="M348.652 667.654C352.541 667.687 357.069 667.648 362.054 667.465C378.427 666.865 399.849 664.727 419.796 658.524L419.798 658.523C428.515 655.806 440.394 653.578 451.312 654.902C461.161 656.096 469.985 660.123 475.271 669.121C429.408 677.253 386.116 680.271 348.652 667.654Z" stroke="#F7FFFD" stroke-opacity="0.2" stroke-width="5"/>
<path d="M75.0014 462.988C84.3883 487.388 97.8581 510.383 114.737 530.167L115.692 531.278C131.68 549.773 151.37 566.09 174.859 574.599L174.86 574.599C192.082 580.83 208.394 580.923 224.651 578.612C235.044 577.192 245.456 574.768 256.032 572.359L256.035 572.359C298.252 562.694 343.859 567.064 384.014 584.616C385.041 589.353 382.894 594.437 378.644 599.271C374.127 604.406 367.665 608.724 362.009 611.148C356.365 613.567 350.277 614.765 343.885 615.631C337.638 616.477 330.774 617.033 324.33 618.159L324.326 618.159C311.319 620.452 296.533 626.523 291.203 639.76C288.045 647.575 288.915 655.768 291.726 663.401C294.531 671.02 299.328 678.261 304.332 684.386C335.159 722.147 369.177 734.885 416.219 744.247L416.223 744.248C435.445 748.05 452.807 749.605 468.207 750.751C483.676 751.902 496.985 752.634 508.41 754.763C519.782 756.883 528.974 760.341 536.249 766.744C542.953 772.644 548.25 781.244 551.98 794.182C469.181 787.83 383.205 780.879 305.473 749.629L303.613 748.876C231.241 719.381 164.302 670.379 120.447 605.138C92.007 562.833 75.8522 512.117 75.0014 462.988Z" stroke="#F7FFFD" stroke-opacity="0.2" stroke-width="5"/>
<path d="M183.766 303.264C228.248 281.922 281.902 275.334 327.001 297.121L329.691 298.421L330.505 295.592C339.762 263.405 361.564 237.145 389.038 217.862L404.867 214.748C450.886 205.721 490.704 213.599 523.44 237.967L523.44 237.968C548.277 256.475 565.575 282.043 576.566 306.511C568.561 296.112 559.089 286.859 548.054 279.367L547.207 278.797C513.733 256.503 467.97 253.385 431.576 270.811L430.718 271.227C412.489 280.155 395.221 294.747 382.269 312.051C370.31 328.027 361.929 346.453 359.97 365.029C344.567 354.031 324.982 347.809 304.862 345.833C283.07 343.692 260.449 346.508 241.482 353.813C203.475 368.454 174.827 404.118 169.306 443.72C164.384 478.992 176.895 514.666 196.827 543.98L197.782 545.371C203.931 554.302 210.772 562.689 218.037 570.701C205.26 571.695 194.516 570.436 184.03 566.81L184.03 566.809C165.472 560.394 147.686 547.695 131.156 528.888L131.156 528.887C112.624 507.812 98.254 482.084 89.6132 454.462L89.6128 454.461L85.0639 439.936C92.8957 383.279 124.042 331.927 183.766 303.264Z" stroke="#F7FFFD" stroke-opacity="0.2" stroke-width="5"/>
</svg>
