<svg width="75" height="75" viewBox="0 0 75 75" fill="none" xmlns="http://www.w3.org/2000/svg">
<path d="M72.0576 61.206C70.1763 56.996 67.4461 53.1718 64.0191 49.9466C60.6026 46.7121 56.5554 44.1332 52.101 42.3524C52.0611 42.3335 52.0212 42.3241 51.9813 42.3053C58.1947 38.0653 62.2339 31.1589 62.2339 23.3668C62.2339 10.4585 51.1635 0 37.5 0C23.8365 0 12.7661 10.4585 12.7661 23.3668C12.7661 31.1589 16.8053 38.0653 23.0187 42.3147C22.9788 42.3335 22.9389 42.343 22.899 42.3618C18.431 44.1426 14.4217 46.696 10.9809 49.956C7.55714 53.1837 4.82739 57.0073 2.94238 61.2155C1.09056 65.3353 0.0918239 69.7523 0.000249393 74.2274C-0.00241254 74.3279 0.0162578 74.428 0.0551609 74.5216C0.094064 74.6153 0.152412 74.7006 0.226768 74.7726C0.301123 74.8446 0.389982 74.9018 0.488107 74.9409C0.586232 74.9799 0.691639 75 0.798116 75H6.78212C7.22095 75 7.57001 74.6702 7.57999 74.2651C7.77945 66.9912 10.8712 60.179 16.3366 55.0157C21.9915 49.6734 29.5014 46.7337 37.5 46.7337C45.4986 46.7337 53.0085 49.6734 58.6634 55.0157C64.1288 60.179 67.2205 66.9912 67.42 74.2651C67.43 74.6797 67.7791 75 68.2179 75H74.2019C74.3084 75 74.4138 74.9799 74.5119 74.9409C74.61 74.9018 74.6989 74.8446 74.7732 74.7726C74.8476 74.7006 74.9059 74.6153 74.9448 74.5216C74.9837 74.428 75.0024 74.3279 74.9998 74.2274C74.9 69.7236 73.9127 65.3423 72.0576 61.206ZM37.5 39.5729C32.9222 39.5729 28.6138 37.8863 25.3724 34.8241C22.1311 31.7619 20.3459 27.6916 20.3459 23.3668C20.3459 19.0421 22.1311 14.9717 25.3724 11.9095C28.6138 8.84736 32.9222 7.1608 37.5 7.1608C42.0778 7.1608 46.3862 8.84736 49.6276 11.9095C52.8689 14.9717 54.6541 19.0421 54.6541 23.3668C54.6541 27.6916 52.8689 31.7619 49.6276 34.8241C46.3862 37.8863 42.0778 39.5729 37.5 39.5729Z" fill="#E17153"/>
</svg>
