<svg width="300" height="300" viewBox="0 0 300 300" fill="none" xmlns="http://www.w3.org/2000/svg">
<g clip-path="url(#clip0_2014_925)">
<path d="M289.443 149.994C294.076 144.598 297.323 138.154 298.902 131.22C300.48 124.286 300.344 117.071 298.503 110.202C296.662 103.333 293.173 97.0164 288.339 91.8008C283.504 86.5852 277.47 82.628 270.76 80.2723C272.075 73.283 271.664 66.0785 269.564 59.2837C267.464 52.489 263.738 46.3093 258.708 41.2807C253.679 36.2522 247.499 32.5267 240.704 30.4275C233.909 28.3283 226.704 27.9187 219.715 29.2344C217.362 22.5227 213.405 16.487 208.189 11.6513C202.974 6.81559 196.657 3.32607 189.786 1.48569C182.916 -0.354701 175.701 -0.49032 168.766 1.0906C161.831 2.67153 155.388 5.92121 149.994 10.5575C144.599 5.9244 138.154 2.67764 131.22 1.09891C124.286 -0.479833 117.071 -0.342877 110.202 1.49789C103.333 3.33865 97.0166 6.82763 91.8011 11.6622C86.5855 16.4967 82.6283 22.5307 80.2727 29.2409C73.2838 27.9273 66.08 28.3387 59.2861 30.4393C52.4923 32.54 46.3135 36.2664 41.2858 41.2954C36.2581 46.3245 32.5332 52.5042 30.4343 59.2986C28.3354 66.093 27.9259 73.2968 29.2412 80.2853C22.531 82.641 16.497 86.5982 11.6624 91.8138C6.82792 97.0294 3.33893 103.346 1.49816 110.215C-0.3426 117.084 -0.479576 124.299 1.09916 131.233C2.6779 138.167 5.92471 144.611 10.5578 150.007C5.9233 155.402 2.67549 161.847 1.09631 168.781C-0.482881 175.716 -0.345786 182.932 1.49578 189.802C3.33735 196.671 6.82769 202.988 11.6639 208.203C16.5001 213.418 22.536 217.374 29.2477 219.728C27.9312 226.717 28.3403 233.921 30.4395 240.716C32.5386 247.511 36.2644 253.69 41.2934 258.719C46.3224 263.747 52.5026 267.472 59.2977 269.57C66.0927 271.669 73.2971 272.077 80.2857 270.759C82.6413 277.47 86.5985 283.504 91.8141 288.338C97.0296 293.173 103.346 296.662 110.215 298.502C117.084 300.343 124.299 300.48 131.233 298.901C138.167 297.323 144.612 294.076 150.007 289.443C155.402 294.077 161.847 297.325 168.782 298.904C175.717 300.484 182.932 300.346 189.802 298.505C196.672 296.663 202.988 293.173 208.204 288.337C213.419 283.501 217.375 277.465 219.728 270.753C226.717 272.069 233.922 271.66 240.717 269.561C247.512 267.461 253.691 263.736 258.72 258.707C263.749 253.678 267.475 247.498 269.574 240.703C271.673 233.908 272.082 226.704 270.766 219.715C277.477 217.36 283.512 213.403 288.346 208.187C293.181 202.971 296.67 196.654 298.51 189.785C300.35 182.915 300.486 175.7 298.906 168.766C297.326 161.832 294.078 155.388 289.443 149.994Z" fill="#00715D"/>
<path d="M123.074 207.253L81.3904 165.595C79.8085 164.011 78.9199 161.863 78.9199 159.624C78.9199 157.385 79.8085 155.238 81.3904 153.653L86.4546 148.583C88.0391 147.001 90.1866 146.112 92.4256 146.112C94.6646 146.112 96.8121 147.001 98.3966 148.583L128.697 178.864L200.057 103.032C201.592 101.402 203.711 100.449 205.949 100.381C208.187 100.312 210.36 101.135 211.992 102.667L217.193 107.576C218.824 109.111 219.778 111.232 219.847 113.471C219.915 115.711 219.091 117.885 217.557 119.518L135.217 207.064C134.442 207.89 133.509 208.552 132.472 209.011C131.436 209.469 130.318 209.714 129.185 209.732C128.053 209.749 126.928 209.539 125.878 209.113C124.828 208.687 123.874 208.055 123.074 207.253Z" fill="white"/>
</g>
<defs>
<clipPath id="clip0_2014_925">
<rect width="300" height="300" fill="white"/>
</clipPath>
</defs>
</svg>
